<svg viewBox="0 0 1645 124" fill="none" xmlns="http://www.w3.org/2000/svg">
<path fill-rule="evenodd" clip-rule="evenodd" d="M42.2792 1.62061C18.929 1.62061 0 19.9666 0 42.5976V81.0912C0 103.722 18.929 122.068 42.2792 122.068H134.525C157.875 122.068 176.804 103.722 176.804 81.0912V42.5976C176.804 19.9666 157.875 1.62061 134.525 1.62061H42.2792ZM143.493 32.6638H34.592V91.025H143.493V32.6638Z" fill="#000000"></path>
<path fill-rule="evenodd" clip-rule="evenodd" d="M1510.48 1.62061C1487.13 1.62061 1468.2 19.9666 1468.2 42.5976V81.0912C1468.2 103.722 1487.13 122.068 1510.48 122.068H1602.72C1626.07 122.068 1645 103.722 1645 81.0912V42.5976C1645 19.9666 1626.07 1.62061 1602.72 1.62061H1510.48ZM1611.69 32.6638H1502.79V91.025H1611.69V32.6638Z" fill="#000000"></path>
<path fill-rule="evenodd" clip-rule="evenodd" d="M225.425 1.62061C204.676 1.62061 187.854 18.4416 187.854 39.1914V84.4974C187.854 105.247 204.675 122.068 225.425 122.068H361.343V92.2326H221.005V32.5613H361.343V1.62061H225.425Z" fill="#000000"></path>
<path d="M549.189 31.4565H479.571V122.068H447.525V31.4565H377.911V1.62061H549.189V31.4565Z" fill="#000000"></path>
<path d="M749.933 45.8218H860.437V1.62061H892.482V122.069H860.437V75.6567H749.933V122.068H717.887V1.62061H749.933V45.8218Z" fill="#000000"></path>
<path d="M1313.5 45.8218H1424V1.62061H1456.05V122.069H1424V75.6567H1313.5V122.068H1281.45V1.62061H1313.5V45.8218Z" fill="#000000"></path>
<path d="M621.45 0.644531C624.894 0.644531 628.305 1.20077 631.487 2.28223C634.67 3.36375 637.562 4.94984 639.997 6.94824C642.432 8.94656 644.365 11.3188 645.683 13.9297C645.839 14.2398 645.986 14.553 646.124 14.8682L705.064 122.49H669.833L652.052 90.0225H590.795L573.245 122.068H538.015L597.06 14.2529C597.112 14.145 597.164 14.037 597.218 13.9297C598.536 11.3187 600.469 8.94664 602.904 6.94824C605.34 4.94987 608.231 3.36374 611.413 2.28223C614.595 1.20076 618.006 0.644535 621.45 0.644531ZM607.135 60.1865H635.713L621.424 34.0947L607.135 60.1865Z" fill="#000000"></path>
<path d="M941.097 59.1782C941.291 56.6708 941.811 54.2073 942.647 51.8735C943.729 48.8545 945.512 46.4449 947.511 44.1343C949.407 41.9416 953.025 39.183 955.62 37.8384V37.8354L1016.03 1.62061H1078.35L978.693 61.3657L1079.29 121.676H1016.75L954.451 84.4858V84.4771C954.4 84.4462 954.347 84.4171 954.295 84.3853C951.77 82.6926 949.08 80.9549 947.287 78.8813C945.289 76.5707 943.729 73.9375 942.647 70.9185C941.811 68.5844 941.291 66.1206 941.097 63.6128V122.068H909.051V1.62061H941.097V59.1782Z" fill="#000000"></path>
<path d="M1220.32 3.33407C1225.91 0.506109 1234.02 -0.466718 1240.28 0.196372C1246.54 0.8595 1251.59 2.99041 1256.42 6.92098C1261.24 10.8516 1263.91 16.1395 1265.68 22.0128C1266.71 25.4528 1267.12 29.0219 1266.89 32.5616H1267.07V122.068H1235.03V33.8263L1151.64 114.326C1151.05 114.925 1150.44 115.517 1149.8 116.103L1148.83 117.043L1148.79 117.005C1143.64 121.478 1138 123.043 1131.59 123.431C1125.18 123.819 1118.78 122.386 1113.22 119.316C1107.66 116.247 1103.18 111.677 1100.35 106.184C1098.28 102.162 1097.16 97.778 1097.04 93.338H1096.9V1.6202H1128.95V89.8136L1210.46 11.1222C1211.83 9.48803 1213.37 8.0016 1215.06 6.67879L1215.47 6.28133L1215.52 6.32821C1217.01 5.20123 1218.62 4.19879 1220.32 3.33407Z" fill="#000000"></path></svg>