<svg xmlns="http://www.w3.org/2000/svg" viewBox="0 0 64 64" fill="none" aria-labelledby="title">
  <title id="title">Контакты — безопасный канал сопряжения</title>
  <g stroke="currentColor" stroke-width="1.5" stroke-linecap="round" stroke-linejoin="round">
    <circle cx="32" cy="32" r="6"/>
    <path d="M32 8v7l-3 3v8l3 3"/>
    <path d="M32 56v-7l3-3v-8l-3-3"/>
    <path d="M29 11l3-3 3 3M29 53l3 3 3-3"/>
    <path d="M18 18.5A19 19 0 0 1 28 13.4"/>
    <path d="M36 13.4A19 19 0 0 1 50 27"/>
    <path d="M50 37A19 19 0 0 1 36 50.5"/>
    <path d="M28 50.5A19 19 0 0 1 14 37"/>
    <path d="M13 25A21 21 0 0 1 19 15.5" stroke-width=".85"/>
    <path d="M45 15.5A21 21 0 0 1 51 25" stroke-width=".85"/>
    <path d="M51 39A21 21 0 0 1 45 48.5" stroke-width=".85"/>
    <path d="M19 48.5A21 21 0 0 1 13 39" stroke-width=".85"/>
    <path d="M7.5 32H13l3-3M7.5 32H13l3 3"/>
    <path d="M56.5 32H51l-3-3M56.5 32H51l-3 3"/>
    <path d="M26 32h-4M38 32h4" stroke-width=".9"/>
  </g>
  <g fill="currentColor">
    <circle cx="32" cy="32" r="1.7"/>
    <circle cx="19" cy="32" r=".75"/>
    <circle cx="45" cy="32" r=".75"/>
    <circle cx="32" cy="19" r=".75"/>
    <circle cx="32" cy="45" r=".75"/>
  </g>
</svg>