<svg xmlns="http://www.w3.org/2000/svg" viewBox="0 0 64 64" fill="none" aria-labelledby="title">
  <title id="title">Главная — цифровое навигационное ядро</title>
  <g stroke="currentColor" stroke-width="1.5" stroke-linecap="round" stroke-linejoin="round">
    <circle cx="32" cy="32" r="5.5"/>
    <circle cx="32" cy="32" r="12"/>
    <path d="M18.5 18.7A19 19 0 0 1 29 13.4"/>
    <path d="M35.5 13.3A19 19 0 0 1 50.4 27"/>
    <path d="M50.2 37.8A19 19 0 0 1 36.8 50.2"/>
    <path d="M27.2 50.3A19 19 0 0 1 13.8 36.7"/>
    <path d="M11.5 27.8A21.2 21.2 0 0 1 21 14.5" stroke-width=".85"/>
    <path d="M43.8 14.7A21.2 21.2 0 0 1 52.5 26.2" stroke-width=".85"/>
    <path d="M52.3 39A21.2 21.2 0 0 1 43.5 49.5" stroke-width=".85"/>
    <path d="M20.7 49.7A21.2 21.2 0 0 1 11.8 38.2" stroke-width=".85"/>
    <path d="M32 7.5v4.5M32 52v4.5M7.5 32H12M52 32h4.5"/>
    <path d="M29.5 10l2.5-2.5 2.5 2.5M29.5 54l2.5 2.5 2.5-2.5"/>
    <path d="M10 29.5L7.5 32l2.5 2.5M54 29.5l2.5 2.5L54 34.5"/>
    <path d="M32 20v4M32 40v4M20 32h4M40 32h4" stroke-width=".9"/>
  </g>
  <g fill="currentColor">
    <circle cx="32" cy="32" r="1.7"/>
    <circle cx="32" cy="16.2" r=".75"/>
    <circle cx="47.3" cy="32" r=".75"/>
    <circle cx="32" cy="47.7" r=".75"/>
    <circle cx="16.5" cy="32" r=".75"/>
  </g>
</svg>