<svg xmlns="http://www.w3.org/2000/svg" viewBox="0 0 64 64" fill="none" aria-labelledby="title">
  <title id="title">Портфолио — система цифровых проектов</title>
  <g stroke="currentColor" stroke-width="1.5" stroke-linecap="round" stroke-linejoin="round">
    <path d="M21 18.5l21-3 2 27-21 4-2-28Z"/>
    <path d="M24.5 21l15.5-2.2 1.4 19.8-15.6 3-1.3-20.6Z" stroke-width=".9"/>
    <path d="M27.5 35.5l4.8-5 4.3 3.8 3-2.8"/>
    <circle cx="31" cy="26" r="1.7"/>
    <path d="M15.5 14.5l7-2.5M41 11.5l7.5 2"/>
    <path d="M13 20.5l5.5 1M45.5 22l5.5-1"/>
    <path d="M14 42.5l6-2M44 44.5l6 2"/>
    <path d="M17 49l6.5 2.5M40.5 51l6.5-2.5"/>
    <path d="M11.5 27.5A22 22 0 0 1 17 17" stroke-width=".85"/>
    <path d="M47.5 16.5A22 22 0 0 1 52 27" stroke-width=".85"/>
    <path d="M52 37A22 22 0 0 1 46.5 47.5" stroke-width=".85"/>
    <path d="M17.5 47.5A22 22 0 0 1 12 37" stroke-width=".85"/>
    <path d="M32 7.5v4M32 52.5v4M7.5 32H12M52 32h4.5" stroke-width=".9"/>
  </g>
  <g fill="currentColor">
    <rect x="14.2" y="31.2" width="1.5" height="1.5" rx=".3"/>
    <rect x="17.2" y="31.2" width="1.5" height="1.5" rx=".3"/>
    <rect x="47.3" y="31.2" width="1.5" height="1.5" rx=".3"/>
    <rect x="50.3" y="31.2" width="1.5" height="1.5" rx=".3"/>
    <circle cx="32" cy="9" r=".8"/>
    <circle cx="32" cy="55" r=".8"/>
  </g>
</svg>