<svg width="180" height="23" viewBox="0 0 180 23" fill="none" xmlns="http://www.w3.org/2000/svg">
<path d="M45.2304 22.1645C43.3188 22.1645 41.6708 21.8682 40.2866 21.2754C38.9023 20.6827 37.8366 19.7512 37.0896 18.481C36.3645 17.1897 36.002 15.5385 36.002 13.5274V0H39.133V13.8449C39.133 15.7502 39.6604 17.1791 40.715 18.1317C41.7917 19.0844 43.2968 19.5607 45.2304 19.5607C47.1859 19.5607 48.713 19.0844 49.8116 18.1317C50.9102 17.1791 51.4595 15.7502 51.4595 13.8449V0H54.5577V13.5274C54.5577 15.5385 54.1841 17.1897 53.4371 18.481C52.69 19.7512 51.6134 20.6827 50.2071 21.2754C48.8229 21.8682 47.1639 22.1645 45.2304 22.1645Z" fill="#FBF9F4"/>
<path d="M59.5586 21.7835V0H71.2259C72.5223 0 73.6429 0.222281 74.5877 0.666843C75.5325 1.09023 76.2576 1.69357 76.763 2.47684C77.2903 3.26011 77.554 4.19158 77.554 5.27122C77.554 6.09684 77.4002 6.85894 77.0926 7.55754C76.785 8.25613 76.3565 8.8383 75.8072 9.30403C75.2579 9.76976 74.6317 10.1191 73.9286 10.3519V10.4789C74.7196 10.6483 75.4337 10.9553 76.0709 11.3998C76.7081 11.8444 77.2134 12.4371 77.587 13.1781C77.9825 13.8978 78.1802 14.7869 78.1802 15.8454C78.1802 17.2638 77.8726 18.4069 77.2574 19.2749C76.6421 20.1428 75.8182 20.7779 74.7855 21.1802C73.7528 21.5824 72.5663 21.7835 71.2259 21.7835H59.5586ZM62.6897 19.1796H71.193C72.3136 19.1796 73.2254 18.9044 73.9286 18.354C74.6317 17.7824 74.9832 16.8404 74.9832 15.5279C74.9832 14.7234 74.8294 14.0566 74.5218 13.5274C74.2142 12.9769 73.7638 12.5747 73.1705 12.3207C72.5772 12.0455 71.8302 11.9079 70.9293 11.9079H62.6897V19.1796ZM62.6897 9.33578H70.6327C71.3797 9.33578 72.0279 9.19818 72.5772 8.92297C73.1266 8.6266 73.555 8.22438 73.8626 7.71631C74.1922 7.18707 74.357 6.59432 74.357 5.93807C74.357 4.79491 74.0384 3.95871 73.4012 3.42947C72.764 2.87906 71.9181 2.60386 70.8634 2.60386H62.6897V9.33578Z" fill="#FBF9F4"/>
<path d="M83.1797 21.7835L92.1115 0H96.2313L105.196 21.7835H101.801L99.5931 16.3852L98.7888 14.4551H89.4023L88.5849 16.3852L86.4096 21.7835H83.1797ZM97.7752 11.9083L95.8028 6.98596C95.7369 6.79543 95.638 6.53081 95.5062 6.1921C95.3744 5.85339 95.2316 5.48292 95.0777 5.0807C94.9239 4.65731 94.7701 4.23391 94.6163 3.81052C94.4625 3.36596 94.3197 2.96374 94.1879 2.60386H93.9901C93.8363 3.02725 93.6605 3.51415 93.4628 4.06456C93.265 4.61497 93.0673 5.15479 92.8695 5.68403C92.6718 6.1921 92.507 6.62608 92.3751 6.98596L90.9909 10.3996L90.379 11.9083H97.7752Z" fill="#FBF9F4"/>
<path d="M110.195 21.7835V0H122.093C125.792 0 128.982 2.44899 128.982 5.96683C128.982 8.36692 127.313 10.5657 125.027 11.4313L129.773 21.7835H126.345L121.929 11.9711H113.326V21.7835H110.195ZM113.326 9.29506H121.797C123.811 9.29506 125.818 8.03654 125.818 5.96683C125.818 3.76849 123.901 2.60386 121.797 2.60386H113.326V9.29506Z" fill="#FBF9F4"/>
<path d="M145.584 22.5456C143.277 22.5456 141.321 22.1434 139.717 21.3389C138.113 20.5133 136.883 19.2749 136.026 17.6237C135.191 15.9513 134.773 13.8343 134.773 11.2728C134.773 7.48344 135.729 4.65731 137.641 2.79438C139.552 0.931461 142.211 0 145.617 0C147.55 0 149.264 0.306959 150.758 0.920876C152.252 1.51362 153.417 2.42392 154.252 3.65175C155.109 4.85842 155.537 6.38263 155.537 8.22438H152.373C152.373 6.9542 152.088 5.90631 151.516 5.0807C150.967 4.25508 150.187 3.64117 149.176 3.23894C148.166 2.81555 146.979 2.60386 145.617 2.60386C144.035 2.60386 142.673 2.90023 141.53 3.49298C140.387 4.08573 139.519 5.0066 138.926 6.25561C138.333 7.48344 138.036 9.07116 138.036 11.0188V11.6856C138.036 13.612 138.333 15.1892 138.926 16.417C139.519 17.6237 140.376 18.5128 141.497 19.0844C142.64 19.6559 144.013 19.9417 145.617 19.9417C147.023 19.9417 148.232 19.7406 149.242 19.3384C150.275 18.9362 151.066 18.3223 151.615 17.4967C152.187 16.6499 152.472 16.0072 152.472 14.737H155.537C155.537 16.6211 155.098 17.7507 154.219 18.9574C153.362 20.164 152.187 21.0637 150.692 21.6565C149.198 22.2492 147.495 22.5456 145.584 22.5456Z" fill="#FBF9F4"/>
<path d="M160.537 21.7835V0H163.668V9.33578H175.962V0H179.126V21.7835H175.962V11.9714H163.668V21.7835H160.537Z" fill="#FBF9F4"/>
<rect x="25.5938" y="0.355469" width="3.154" height="21.7923" fill="#FBF9F4"/>
<rect y="13" width="3" height="26" transform="rotate(-90 0 13)" fill="#FBF9F4"/>
<rect width="2.6545" height="17.8585" transform="matrix(-0.720141 -0.693828 0.720141 -0.693828 6.05664 18.25)" fill="#FBF9F4"/>
<rect x="10.1816" y="0.355469" width="3.154" height="21.7923" fill="#FBF9F4"/>
</svg>
