<svg width="394" height="400" viewBox="0 0 394 400" fill="none" xmlns="http://www.w3.org/2000/svg">
<g clip-path="url(#clip0_704_24055)">
<path d="M119.16 268.4C119.16 273.54 114.99 277.7 109.86 277.7C115 277.7 119.16 281.87 119.16 287.01C119.16 281.87 123.33 277.71 128.46 277.7C123.32 277.7 119.16 273.53 119.16 268.4Z" fill="#275c77"/>
<path d="M119.16 268.4C119.16 273.54 114.99 277.7 109.86 277.7C115 277.7 119.16 281.87 119.16 287.01C119.16 281.87 123.33 277.71 128.46 277.7C123.32 277.7 119.16 273.53 119.16 268.4Z" fill="black" fill-opacity="0.2"/>
<path d="M94.1602 227.59C94.1602 237.09 86.4502 244.8 76.9502 244.8C86.4602 244.8 94.1602 252.51 94.1602 262.01C94.1602 252.51 101.86 244.8 111.37 244.8C101.87 244.8 94.1602 237.09 94.1602 227.59Z" fill="#275c77"/>
<path d="M94.1602 227.59C94.1602 237.09 86.4502 244.8 76.9502 244.8C86.4602 244.8 94.1602 252.51 94.1602 262.01C94.1602 252.51 101.86 244.8 111.37 244.8C101.87 244.8 94.1602 237.09 94.1602 227.59Z" fill="black" fill-opacity="0.2"/>
<path d="M285.21 277C285.21 286.5 277.5 294.21 268 294.21C277.51 294.21 285.21 301.92 285.21 311.42C285.21 301.92 292.91 294.21 302.42 294.21C292.92 294.21 285.21 286.5 285.21 277Z" fill="#275c77"/>
<path d="M285.21 277C285.21 286.5 277.5 294.21 268 294.21C277.51 294.21 285.21 301.92 285.21 311.42C285.21 301.92 292.91 294.21 302.42 294.21C292.92 294.21 285.21 286.5 285.21 277Z" fill="black" fill-opacity="0.2"/>
<path d="M232.86 327.64C232.86 332.78 228.69 336.94 223.56 336.94C228.7 336.94 232.86 341.11 232.86 346.25C232.86 341.11 237.03 336.95 242.16 336.94C237.02 336.94 232.86 332.77 232.86 327.64Z" fill="#275c77"/>
<path d="M232.86 327.64C232.86 332.78 228.69 336.94 223.56 336.94C228.7 336.94 232.86 341.11 232.86 346.25C232.86 341.11 237.03 336.95 242.16 336.94C237.02 336.94 232.86 332.77 232.86 327.64Z" fill="black" fill-opacity="0.2"/>
<path fill-rule="evenodd" clip-rule="evenodd" d="M170.34 226.63C156.71 236.79 148.83 259 148.83 259L162.93 267.46L179.49 260.9L185.88 246.4L170.35 226.63H170.34Z" fill="#022636"/>
<path fill-rule="evenodd" clip-rule="evenodd" d="M170.34 226.63C156.71 236.79 148.83 259 148.83 259L162.93 267.46L179.49 260.9L185.88 246.4L170.35 226.63H170.34Z" fill="black" fill-opacity="0.2"/>
<path fill-rule="evenodd" clip-rule="evenodd" d="M251.68 91.75C208.14 56.23 144.37 63.46 164.91 -1.26001C80.1396 58.36 71.0996 159.47 122.28 222.36C127.47 204.29 133.46 181.55 138.2 158.94C142.79 137.03 145.79 94.72 146.51 95.17C151.21 98.13 160.89 120.93 160.89 120.93C160.89 120.93 162.55 120.5 170.02 118.96C177.49 117.41 191.9 116.99 191.9 116.99C191.9 116.99 206.32 117.4 213.79 118.96C221.25 120.5 222.91 120.93 222.91 120.93C222.91 120.93 232.6 98.13 237.3 95.17C238.02 94.72 241.02 137.03 245.61 158.94C254.76 202.63 263.91 234.87 271.5 255.06C315.14 173.8 284.74 118.72 251.68 91.75ZM223.56 156.39C220.93 156.39 218.8 160.66 218.8 165.92C218.8 171.18 220.93 175.46 223.56 175.46C226.19 175.46 228.31 171.18 228.31 165.92C228.31 160.66 226.18 156.39 223.56 156.39ZM160.23 156.39C157.61 156.39 155.48 160.66 155.48 165.92C155.48 171.18 157.61 175.46 160.23 175.46C162.85 175.46 164.98 171.18 164.98 165.92C164.98 160.66 162.85 156.39 160.23 156.39ZM191.9 174.22C184.49 174.22 178.49 177.81 178.49 182.23C178.49 186.32 183.63 189.71 190.27 190.18V195.76C190.27 196.68 191 197.42 191.9 197.42C192.8 197.42 193.53 196.68 193.53 195.76V190.18C200.17 189.71 205.3 186.32 205.3 182.23C205.3 177.8 199.3 174.22 191.9 174.22Z" fill="#F68759"/>
<path fill-rule="evenodd" clip-rule="evenodd" d="M241.349 250.34L194.109 274.31L213.989 216.32C215.039 216.65 216.069 217.05 217.089 217.49C230.089 223.14 238.559 235.49 241.349 250.35V250.34Z" fill="#A0DBD9"/>
<path fill-rule="evenodd" clip-rule="evenodd" d="M222.509 259.9L194.119 274.3L204.969 242.63L222.509 259.9Z" fill="#022636"/>
<path fill-rule="evenodd" clip-rule="evenodd" d="M222.509 259.9L194.119 274.3L204.969 242.63L222.509 259.9Z" fill="black" fill-opacity="0.2"/>
<path fill-rule="evenodd" clip-rule="evenodd" d="M242.329 264.6C242.309 265.09 242.279 265.6 242.239 266.09C242.209 266.6 242.159 267.09 242.119 267.6C242.029 268.6 241.919 269.61 241.769 270.63C241.699 271.12 241.629 271.62 241.549 272.1C241.469 272.59 241.389 273.09 241.299 273.58C241.119 274.57 240.919 275.56 240.679 276.55C240.579 277.01 240.469 277.47 240.339 277.93C240.329 278.03 240.299 278.14 240.259 278.25C239.999 279.27 239.709 280.29 239.399 281.32C239.249 281.84 239.079 282.34 238.919 282.85C238.739 283.36 238.569 283.87 238.389 284.38C238.209 284.89 238.029 285.4 237.829 285.91C236.959 286.21 236.469 286.27 236.469 286.27C234.989 286.48 233.169 286.51 231.169 286.42H231.159L224.359 284.19L194.119 274.3L222.509 259.9L241.359 250.33C241.449 250.78 241.519 251.24 241.599 251.7C241.749 252.61 241.889 253.55 241.999 254.48C242.109 255.41 242.199 256.36 242.259 257.3C242.309 258.2 242.359 259.1 242.389 260.01V260.17C242.419 261.63 242.409 263.1 242.339 264.58L242.329 264.6Z" fill="#022636"/>
<path fill-rule="evenodd" clip-rule="evenodd" d="M242.329 264.6C242.309 265.09 242.279 265.6 242.239 266.09C242.209 266.6 242.159 267.09 242.119 267.6C242.029 268.6 241.919 269.61 241.769 270.63C241.699 271.12 241.629 271.62 241.549 272.1C241.469 272.59 241.389 273.09 241.299 273.58C241.119 274.57 240.919 275.56 240.679 276.55C240.579 277.01 240.469 277.47 240.339 277.93C240.329 278.03 240.299 278.14 240.259 278.25C239.999 279.27 239.709 280.29 239.399 281.32C239.249 281.84 239.079 282.34 238.919 282.85C238.739 283.36 238.569 283.87 238.389 284.38C238.209 284.89 238.029 285.4 237.829 285.91C236.959 286.21 236.469 286.27 236.469 286.27C234.989 286.48 233.169 286.51 231.169 286.42H231.159L224.359 284.19L194.119 274.3L222.509 259.9L241.359 250.33C241.449 250.78 241.519 251.24 241.599 251.7C241.749 252.61 241.889 253.55 241.999 254.48C242.109 255.41 242.199 256.36 242.259 257.3C242.309 258.2 242.359 259.1 242.389 260.01V260.17C242.419 261.63 242.409 263.1 242.339 264.58L242.329 264.6Z" fill="black" fill-opacity="0.2"/>
<path fill-rule="evenodd" clip-rule="evenodd" d="M224.359 284.19L194.119 274.3L222.499 259.9H222.509L224.359 284.19Z" fill="#F68759"/>
<path fill-rule="evenodd" clip-rule="evenodd" d="M231.169 286.43C228.739 286.32 226.049 286.03 223.379 285.66H223.369C215.419 284.56 207.689 282.71 207.689 282.71C207.689 282.71 202.839 281.24 200.489 284.81C200.239 285.19 200.069 285.67 199.959 286.23L194.119 274.31L224.359 284.2L231.159 286.43H231.169Z" fill="#A0DBD9"/>
<path fill-rule="evenodd" clip-rule="evenodd" d="M224.389 284.49L223.379 285.65H223.369C215.419 284.55 207.689 282.7 207.689 282.7C207.689 282.7 202.839 281.23 200.489 284.8C200.239 285.18 200.069 285.66 199.959 286.22L194.119 274.3L224.359 284.18L224.379 284.49H224.389Z" fill="#275c77"/>
<path fill-rule="evenodd" clip-rule="evenodd" d="M224.389 284.49L223.379 285.65H223.369C215.419 284.55 207.689 282.7 207.689 282.7C207.689 282.7 202.839 281.23 200.489 284.8C200.239 285.18 200.069 285.66 199.959 286.22L194.119 274.3L224.359 284.18L224.379 284.49H224.389Z" fill="black" fill-opacity="0.2"/>
<path fill-rule="evenodd" clip-rule="evenodd" d="M206.8 302.99L183.93 304.57H183.91V304.55H183.89L194.12 274.3L199.96 286.23C199.69 287.7 199.92 289.71 200.57 291.91C201.64 295.6 203.86 299.82 206.8 302.99Z" fill="white"/>
<path fill-rule="evenodd" clip-rule="evenodd" d="M194.119 274.3L166.999 287.8C166.529 287.49 165.989 287.14 165.399 286.76C159.959 283.13 149.919 276.09 146.109 271.04C146.639 267.06 147.549 263.03 148.839 259.01L163.889 264.1L194.129 274.31L194.119 274.3Z" fill="#A0DBD9"/>
<path fill-rule="evenodd" clip-rule="evenodd" d="M194.12 274.3L170.34 226.63C183.41 215.8 199.59 211.5 213.99 216.31H214L194.11 274.3H194.12Z" fill="#F68759"/>
<path fill-rule="evenodd" clip-rule="evenodd" d="M206.8 302.99L183.93 304.57H183.91V304.55H183.89L194.12 274.3L199.96 286.23C199.69 287.7 199.92 289.71 200.57 291.91C201.64 295.6 203.86 299.82 206.8 302.99Z" fill="#F68759"/>
<path fill-rule="evenodd" clip-rule="evenodd" d="M212.819 318.29C212.739 318.35 212.649 318.4 212.569 318.46C211.879 318.93 211.179 319.37 210.469 319.79C207.689 321.5 204.819 322.9 201.899 324.01C200.969 324.38 200.019 324.7 199.079 325C192.829 326.95 186.409 327.54 180.169 326.58C179.589 326.5 179.009 326.4 178.439 326.28C178.059 326.2 177.689 326.12 177.319 326.02C177.109 325.99 176.909 325.95 176.699 325.89C176.689 325.89 176.679 325.89 176.669 325.88L183.889 304.54H183.909V304.56H183.929L206.799 302.99L212.819 318.29Z" fill="#022636"/>
<path fill-rule="evenodd" clip-rule="evenodd" d="M212.819 318.29C212.739 318.35 212.649 318.4 212.569 318.46C211.879 318.93 211.179 319.37 210.469 319.79C207.689 321.5 204.819 322.9 201.899 324.01C200.969 324.38 200.019 324.7 199.079 325C192.829 326.95 186.409 327.54 180.169 326.58C179.589 326.5 179.009 326.4 178.439 326.28C178.059 326.2 177.689 326.12 177.319 326.02C177.109 325.99 176.909 325.95 176.699 325.89C176.689 325.89 176.679 325.89 176.669 325.88L183.889 304.54H183.909V304.56H183.929L206.799 302.99L212.819 318.29Z" fill="black" fill-opacity="0.2"/>
<path fill-rule="evenodd" clip-rule="evenodd" d="M194.119 274.3L167.039 287.83C167.039 287.83 167.009 287.81 166.999 287.8C166.519 287.49 165.929 287.21 165.339 286.83L163.879 264.09L194.119 274.3Z" fill="#022636"/>
<path fill-rule="evenodd" clip-rule="evenodd" d="M194.119 274.3L167.039 287.83C167.039 287.83 167.009 287.81 166.999 287.8C166.519 287.49 165.929 287.21 165.339 286.83L163.879 264.09L194.119 274.3Z" fill="black" fill-opacity="0.2"/>
<path fill-rule="evenodd" clip-rule="evenodd" d="M179.929 245.7L163.879 264.09L194.119 274.3L179.929 245.7Z" fill="white"/>
<path fill-rule="evenodd" clip-rule="evenodd" d="M194.119 274.3L179.879 245.76L204.929 242.6L204.969 242.63L204.979 242.64L194.119 274.3Z" fill="#A0DBD9"/>
<path fill-rule="evenodd" clip-rule="evenodd" d="M194.12 274.3L183.91 304.55L176.71 325.88C176.7 325.88 176.7 325.89 176.7 325.89C176.69 325.89 176.68 325.89 176.67 325.88C174.69 325.39 172.76 324.73 170.83 323.9C170.25 323.65 169.68 323.39 169.12 323.1C168.71 322.9 168.33 322.69 167.93 322.48C167.56 322.29 167.18 322.08 166.82 321.86C166.72 321.81 166.63 321.76 166.55 321.69C166.08 321.42 165.63 321.14 165.19 320.85C164.83 320.61 164.47 320.36 164.12 320.11C163.97 320.02 163.83 319.91 163.7 319.81C163.34 319.55 162.97 319.28 162.62 319C161.92 318.45 161.24 317.88 160.57 317.28C160.41 317.14 160.26 317.01 160.13 316.87C159.78 316.54 159.42 316.21 159.08 315.86C158.78 315.56 158.48 315.25 158.19 314.95C158.05 314.8 157.91 314.65 157.79 314.49C157.57 314.26 157.36 314.03 157.15 313.79C156.72 313.3 156.29 312.79 155.9 312.26C155.58 311.86 155.26 311.45 154.96 311.03C154.64 310.6 154.34 310.16 154.04 309.73V309.71C153.74 309.27 153.45 308.82 153.17 308.37C152.9 307.94 152.63 307.51 152.38 307.05C152.36 307.03 152.35 307.01 152.34 306.99C151.74 305.9 151.19 304.79 150.68 303.67C151.08 303.76 151.46 303.85 151.83 303.9C160.41 305.42 171.91 299.97 172.7 295.75C172.75 295.5 172.78 295.25 172.79 295C172.8 294.95 172.8 294.89 172.8 294.84C172.85 291.17 169.03 289.11 169.03 289.11C169.03 289.11 168.26 288.62 167.04 287.83C167.03 287.83 167.01 287.81 167 287.8L194.12 274.3Z" fill="#F68759"/>
<path fill-rule="evenodd" clip-rule="evenodd" d="M127.19 375.96L128.4 354.17L115.47 364.46L109.02 349.85L92.5702 354.32L92.6802 324.87L91.7702 325.77L63.6602 377.97C63.6602 377.97 67.7502 381.02 74.8502 384.05C86.4302 389.63 101.26 390.14 110.44 388.94C111.23 388.84 111.99 388.72 112.68 388.61C114.03 388.36 115.2 388.08 116.16 387.77C116.18 387.77 116.21 387.75 116.24 387.74C131.03 383.78 143.32 375.61 143.32 375.61C143.32 375.61 143.81 373.24 144.27 369.44L127.19 375.96Z" fill="#022636"/>
<path fill-rule="evenodd" clip-rule="evenodd" d="M127.19 375.96L128.4 354.17L115.47 364.46L109.02 349.85L92.5702 354.32L92.6802 324.87L91.7702 325.77L63.6602 377.97C63.6602 377.97 67.7502 381.02 74.8502 384.05C86.4302 389.63 101.26 390.14 110.44 388.94C111.23 388.84 111.99 388.72 112.68 388.61C114.03 388.36 115.2 388.08 116.16 387.77C116.18 387.77 116.21 387.75 116.24 387.74C131.03 383.78 143.32 375.61 143.32 375.61C143.32 375.61 143.81 373.24 144.27 369.44L127.19 375.96Z" fill="black" fill-opacity="0.2"/>
<path fill-rule="evenodd" clip-rule="evenodd" d="M91.7699 325.77L63.6599 377.97C63.6599 377.97 62.0499 378.86 58.8999 379.28C55.7499 379.72 47.9999 379.73 43.5199 374.93C39.0499 370.13 36.3599 363.99 39.1799 353.93C41.9799 343.88 49.7999 329.83 49.7999 329.83C49.7999 329.83 35.0599 323.71 32.9799 322.56C30.8899 321.41 28.1799 318.24 28.7499 316.55C29.3699 314.81 35.8999 304.35 35.8999 304.35C35.8999 304.35 43.2499 294.35 44.6199 293.19C45.9799 292.03 49.9799 293.32 51.8499 294.77C53.7099 296.25 65.0299 307.43 65.0299 307.43C65.0299 307.43 70.1699 301.14 76.1399 295.21C73.3499 308.9 68.1899 334.08 65.0499 349.39L64.3199 352.94L91.7699 325.77Z" fill="#A0DBD9"/>
<path fill-rule="evenodd" clip-rule="evenodd" d="M298.62 341.8L299.63 357.82L284.96 360.99L293.37 377.55L270.8 371.6L273.39 387.41C282.61 390.26 297.99 393.69 311.11 390.23C312.81 389.78 314.45 389.27 316.04 388.72C316.18 388.68 316.31 388.63 316.44 388.59C316.6 388.53 316.76 388.47 316.92 388.42C330.98 383.48 338.12 376.44 341.63 371.38L329.8 348.32L298.62 341.8Z" fill="#022636"/>
<path fill-rule="evenodd" clip-rule="evenodd" d="M298.62 341.8L299.63 357.82L284.96 360.99L293.37 377.55L270.8 371.6L273.39 387.41C282.61 390.26 297.99 393.69 311.11 390.23C312.81 389.78 314.45 389.27 316.04 388.72C316.18 388.68 316.31 388.63 316.44 388.59C316.6 388.53 316.76 388.47 316.92 388.42C330.98 383.48 338.12 376.44 341.63 371.38L329.8 348.32L298.62 341.8Z" fill="black" fill-opacity="0.2"/>
<path fill-rule="evenodd" clip-rule="evenodd" d="M362.06 365.13C358.58 370.74 351.06 372.17 347.91 372.34C344.77 372.5 343.05 371.92 343.05 371.92C342.6 371.77 342.12 371.58 341.63 371.38L329.8 348.32L309.08 316.54C318.84 320.72 346.95 332.76 359.52 338.11C360.62 339.93 361.64 341.74 362.47 343.46C367.04 352.92 365.54 359.52 362.06 365.13Z" fill="#A0DBD9"/>
<path fill-rule="evenodd" clip-rule="evenodd" d="M221.33 311.37C219.29 313.37 217.14 315.19 214.92 316.81C214.24 317.33 213.53 317.82 212.82 318.29L206.8 302.99C207.57 303.81 208.39 304.57 209.25 305.23C209.4 305.34 209.54 305.44 209.69 305.55C212.18 307.32 216.62 309.41 221.33 311.37Z" fill="#A0DBD9"/>
<path fill-rule="evenodd" clip-rule="evenodd" d="M194.12 274.3L183.91 304.55L183.89 304.54L172.79 295C172.79 295 172.8 294.89 172.8 294.84C172.85 291.17 169.03 289.11 169.03 289.11C169.03 289.11 168.26 288.62 167.04 287.83C167.03 287.83 167.01 287.81 167 287.8L194.12 274.3Z" fill="#275c77"/>
<path fill-rule="evenodd" clip-rule="evenodd" d="M194.12 274.3L183.91 304.55L183.89 304.54L172.79 295C172.79 295 172.8 294.89 172.8 294.84C172.85 291.17 169.03 289.11 169.03 289.11C169.03 289.11 168.26 288.62 167.04 287.83C167.03 287.83 167.01 287.81 167 287.8L194.12 274.3Z" fill="black" fill-opacity="0.2"/>
</g>
<defs>
<clipPath id="clip0_704_24055">
<rect width="394" height="400" fill="white"/>
</clipPath>
</defs>
</svg>
