<svg xmlns="http://www.w3.org/2000/svg" viewBox="0 0 431 383" fill="none" aria-labelledby="title" role="img">
  <title id="title">Abstract sci-fi node icon</title>
  <path d="M 246 178 L 245 179 L 241 179 L 240 180 L 237 180 L 236 181 L 235 181 L 234 182 L 232 182 L 231 183 L 229 183 L 228 184 L 227 184 L 226 185 L 225 185 L 223 187 L 222 187 L 221 188 L 220 188 L 218 190 L 217 190 L 214 193 L 213 193 L 204 202 L 204 203 L 201 206 L 201 207 L 199 209 L 199 210 L 198 211 L 198 212 L 196 214 L 196 215 L 195 216 L 195 217 L 194 218 L 194 220 L 193 221 L 193 222 L 192 223 L 192 225 L 191 226 L 191 229 L 190 230 L 190 234 L 189 235 L 189 257 L 190 258 L 190 262 L 191 263 L 191 266 L 192 267 L 192 269 L 193 270 L 193 272 L 194 273 L 194 274 L 195 275 L 195 276 L 196 277 L 196 278 L 197 279 L 197 280 L 198 281 L 198 282 L 200 284 L 200 285 L 203 288 L 203 289 L 215 301 L 216 301 L 218 303 L 219 303 L 221 305 L 222 305 L 223 306 L 224 306 L 225 307 L 226 307 L 227 308 L 228 308 L 229 309 L 230 309 L 231 310 L 233 310 L 234 311 L 235 311 L 236 312 L 239 312 L 240 313 L 243 313 L 244 314 L 250 314 L 251 315 L 263 315 L 264 314 L 270 314 L 271 313 L 274 313 L 275 312 L 278 312 L 279 311 L 281 311 L 282 310 L 283 310 L 284 309 L 286 309 L 287 308 L 288 308 L 289 307 L 290 307 L 292 305 L 293 305 L 294 304 L 295 304 L 297 302 L 298 302 L 302 298 L 303 298 L 308 293 L 308 292 L 313 287 L 313 286 L 315 284 L 315 283 L 316 282 L 316 281 L 318 279 L 318 278 L 319 277 L 319 276 L 320 275 L 320 273 L 321 272 L 321 271 L 322 270 L 322 268 L 323 267 L 323 264 L 324 263 L 324 260 L 325 259 L 325 253 L 326 252 L 326 240 L 325 239 L 325 233 L 324 232 L 324 229 L 323 228 L 323 225 L 322 224 L 322 223 L 321 222 L 321 220 L 320 219 L 320 218 L 319 217 L 319 216 L 318 215 L 318 214 L 317 213 L 317 212 L 316 211 L 316 210 L 314 208 L 314 207 L 312 205 L 312 204 L 300 192 L 299 192 L 296 189 L 295 189 L 293 187 L 292 187 L 291 186 L 290 186 L 289 185 L 288 185 L 287 184 L 286 184 L 285 183 L 284 183 L 283 182 L 281 182 L 280 181 L 278 181 L 277 180 L 274 180 L 273 179 L 269 179 L 268 178 Z M 256 198 L 257 197 L 258 198 L 266 198 L 267 199 L 270 199 L 271 200 L 273 200 L 274 201 L 276 201 L 277 202 L 278 202 L 279 203 L 280 203 L 281 204 L 282 204 L 284 206 L 285 206 L 289 210 L 290 210 L 293 213 L 293 214 L 297 218 L 297 219 L 299 221 L 299 222 L 300 223 L 300 224 L 301 225 L 301 226 L 302 227 L 302 228 L 303 229 L 303 231 L 304 232 L 304 234 L 305 235 L 305 240 L 306 241 L 306 251 L 305 252 L 305 257 L 304 258 L 304 260 L 303 261 L 303 263 L 302 264 L 302 266 L 301 267 L 301 268 L 299 270 L 299 271 L 298 272 L 298 273 L 295 276 L 295 277 L 288 284 L 287 284 L 284 287 L 283 287 L 282 288 L 281 288 L 279 290 L 278 290 L 277 291 L 275 291 L 274 292 L 273 292 L 272 293 L 269 293 L 268 294 L 263 294 L 262 295 L 252 295 L 251 294 L 246 294 L 245 293 L 243 293 L 242 292 L 240 292 L 239 291 L 238 291 L 237 290 L 236 290 L 235 289 L 234 289 L 233 288 L 232 288 L 230 286 L 229 286 L 225 282 L 224 282 L 221 279 L 221 278 L 217 274 L 217 273 L 215 271 L 215 270 L 214 269 L 214 268 L 213 267 L 213 266 L 212 265 L 212 263 L 211 262 L 211 260 L 210 259 L 210 256 L 209 255 L 209 247 L 208 246 L 209 245 L 209 237 L 210 236 L 210 233 L 211 232 L 211 230 L 212 229 L 212 227 L 213 226 L 213 225 L 214 224 L 214 223 L 216 221 L 216 220 L 218 218 L 218 217 L 228 207 L 229 207 L 231 205 L 232 205 L 234 203 L 235 203 L 236 202 L 237 202 L 238 201 L 240 201 L 241 200 L 243 200 L 244 199 L 247 199 L 248 198 Z M 108 60 L 107 61 L 103 61 L 102 62 L 100 62 L 99 63 L 97 63 L 96 64 L 95 64 L 94 65 L 93 65 L 92 66 L 91 66 L 89 68 L 88 68 L 79 77 L 79 78 L 77 80 L 77 81 L 76 82 L 76 83 L 75 84 L 75 85 L 74 86 L 74 88 L 73 89 L 73 91 L 72 92 L 72 96 L 71 97 L 71 107 L 72 108 L 72 112 L 73 113 L 73 116 L 74 117 L 74 118 L 75 119 L 75 120 L 76 121 L 76 122 L 77 123 L 77 124 L 78 125 L 78 126 L 82 130 L 82 131 L 85 134 L 86 134 L 89 137 L 90 137 L 92 139 L 93 139 L 94 140 L 95 140 L 96 141 L 98 141 L 99 142 L 101 142 L 102 143 L 105 143 L 106 144 L 118 144 L 119 145 L 123 145 L 124 146 L 127 146 L 128 147 L 129 147 L 130 148 L 131 148 L 132 149 L 133 149 L 134 150 L 135 150 L 136 151 L 137 151 L 140 154 L 141 154 L 146 159 L 146 160 L 149 163 L 149 164 L 151 166 L 151 167 L 152 168 L 152 169 L 153 170 L 153 171 L 154 172 L 154 174 L 155 175 L 155 178 L 156 179 L 156 196 L 155 197 L 155 200 L 154 201 L 154 203 L 153 204 L 153 205 L 152 206 L 152 207 L 151 208 L 151 209 L 149 211 L 149 212 L 146 215 L 146 216 L 142 220 L 141 220 L 137 224 L 136 224 L 135 225 L 134 225 L 133 226 L 132 226 L 131 227 L 130 227 L 129 228 L 128 228 L 127 229 L 124 229 L 123 230 L 119 230 L 118 231 L 106 231 L 105 232 L 102 232 L 101 233 L 99 233 L 98 234 L 96 234 L 95 235 L 94 235 L 93 236 L 92 236 L 90 238 L 89 238 L 86 241 L 85 241 L 82 244 L 82 245 L 78 249 L 78 250 L 77 251 L 77 252 L 76 253 L 76 254 L 75 255 L 75 256 L 74 257 L 74 258 L 73 259 L 73 262 L 72 263 L 72 267 L 71 268 L 71 278 L 72 279 L 72 283 L 73 284 L 73 286 L 74 287 L 74 289 L 75 290 L 75 291 L 76 292 L 76 293 L 77 294 L 77 295 L 79 297 L 79 298 L 88 307 L 89 307 L 91 309 L 92 309 L 93 310 L 94 310 L 95 311 L 96 311 L 97 312 L 99 312 L 100 313 L 102 313 L 103 314 L 107 314 L 108 315 L 118 315 L 119 314 L 123 314 L 124 313 L 127 313 L 128 312 L 129 312 L 130 311 L 131 311 L 132 310 L 133 310 L 134 309 L 135 309 L 136 308 L 137 308 L 141 304 L 142 304 L 145 301 L 145 300 L 148 297 L 148 296 L 150 294 L 150 293 L 151 292 L 151 291 L 152 290 L 152 288 L 153 287 L 153 285 L 154 284 L 154 281 L 155 280 L 155 264 L 156 263 L 156 255 L 157 254 L 157 249 L 158 248 L 158 244 L 159 243 L 159 240 L 160 239 L 160 237 L 161 236 L 161 233 L 162 232 L 162 231 L 163 230 L 163 228 L 164 227 L 164 225 L 165 224 L 165 223 L 166 222 L 166 221 L 167 220 L 167 218 L 168 217 L 168 216 L 169 215 L 169 214 L 171 212 L 171 211 L 172 210 L 172 209 L 173 208 L 173 207 L 175 205 L 175 204 L 177 202 L 177 201 L 179 199 L 179 198 L 182 195 L 182 194 L 186 190 L 186 189 L 200 175 L 201 175 L 205 171 L 206 171 L 209 168 L 210 168 L 212 166 L 213 166 L 215 164 L 216 164 L 218 162 L 219 162 L 220 161 L 221 161 L 222 160 L 223 160 L 225 158 L 226 158 L 227 157 L 228 157 L 229 156 L 231 156 L 232 155 L 233 155 L 234 154 L 235 154 L 236 153 L 238 153 L 239 152 L 241 152 L 242 151 L 243 151 L 244 150 L 247 150 L 248 149 L 250 149 L 251 148 L 254 148 L 255 147 L 259 147 L 260 146 L 265 146 L 266 145 L 274 145 L 275 144 L 291 144 L 292 143 L 295 143 L 296 142 L 298 142 L 299 141 L 301 141 L 302 140 L 303 140 L 304 139 L 305 139 L 307 137 L 308 137 L 311 134 L 312 134 L 315 131 L 315 130 L 319 126 L 319 125 L 320 124 L 320 123 L 321 122 L 321 121 L 322 120 L 322 119 L 323 118 L 323 117 L 324 116 L 324 113 L 325 112 L 325 108 L 326 107 L 326 97 L 325 96 L 325 92 L 324 91 L 324 89 L 323 88 L 323 86 L 322 85 L 322 84 L 321 83 L 321 82 L 320 81 L 320 80 L 318 78 L 318 77 L 309 68 L 308 68 L 306 66 L 305 66 L 304 65 L 303 65 L 302 64 L 301 64 L 300 63 L 298 63 L 297 62 L 295 62 L 294 61 L 290 61 L 289 60 L 279 60 L 278 61 L 274 61 L 273 62 L 271 62 L 270 63 L 268 63 L 267 64 L 266 64 L 265 65 L 264 65 L 263 66 L 262 66 L 261 67 L 260 67 L 256 71 L 255 71 L 252 74 L 252 75 L 249 78 L 249 79 L 247 81 L 247 82 L 246 83 L 246 84 L 245 85 L 245 87 L 244 88 L 244 90 L 243 91 L 243 94 L 242 95 L 242 107 L 241 108 L 241 112 L 240 113 L 240 116 L 239 117 L 239 118 L 238 119 L 238 120 L 237 121 L 237 122 L 236 123 L 236 124 L 235 125 L 235 126 L 232 129 L 232 130 L 227 135 L 226 135 L 223 138 L 222 138 L 220 140 L 219 140 L 218 141 L 217 141 L 216 142 L 215 142 L 214 143 L 212 143 L 211 144 L 208 144 L 207 145 L 190 145 L 189 144 L 186 144 L 185 143 L 183 143 L 182 142 L 181 142 L 180 141 L 179 141 L 178 140 L 177 140 L 175 138 L 174 138 L 171 135 L 170 135 L 166 131 L 166 130 L 162 126 L 162 125 L 161 124 L 161 123 L 160 122 L 160 121 L 159 120 L 159 119 L 158 118 L 158 117 L 157 116 L 157 113 L 156 112 L 156 108 L 155 107 L 155 95 L 154 94 L 154 91 L 153 90 L 153 88 L 152 87 L 152 85 L 151 84 L 151 83 L 150 82 L 150 81 L 148 79 L 148 78 L 145 75 L 145 74 L 142 71 L 141 71 L 137 67 L 136 67 L 135 66 L 134 66 L 133 65 L 132 65 L 131 64 L 130 64 L 129 63 L 128 63 L 127 62 L 124 62 L 123 61 L 119 61 L 118 60 Z M 107 252 L 108 251 L 118 251 L 119 252 L 121 252 L 122 253 L 123 253 L 124 254 L 125 254 L 132 261 L 132 262 L 133 263 L 133 264 L 134 265 L 134 267 L 135 268 L 135 278 L 134 279 L 134 281 L 133 282 L 133 283 L 131 285 L 131 286 L 126 291 L 125 291 L 124 292 L 123 292 L 122 293 L 121 293 L 120 294 L 117 294 L 116 295 L 110 295 L 109 294 L 106 294 L 105 293 L 104 293 L 103 292 L 102 292 L 99 289 L 98 289 L 97 288 L 97 287 L 94 284 L 94 283 L 93 282 L 93 281 L 92 280 L 92 277 L 91 276 L 91 270 L 92 269 L 92 266 L 93 265 L 93 264 L 94 263 L 94 262 L 95 261 L 95 260 L 100 255 L 101 255 L 103 253 L 104 253 L 105 252 Z M 280 81 L 281 80 L 287 80 L 288 81 L 291 81 L 292 82 L 293 82 L 294 83 L 295 83 L 298 86 L 299 86 L 300 87 L 300 88 L 303 91 L 303 92 L 304 93 L 304 94 L 305 95 L 305 98 L 306 99 L 306 105 L 305 106 L 305 109 L 304 110 L 304 111 L 303 112 L 303 113 L 302 114 L 302 115 L 297 120 L 296 120 L 294 122 L 293 122 L 292 123 L 290 123 L 289 124 L 279 124 L 278 123 L 276 123 L 275 122 L 274 122 L 273 121 L 272 121 L 265 114 L 265 113 L 264 112 L 264 111 L 263 110 L 263 108 L 262 107 L 262 97 L 263 96 L 263 94 L 264 93 L 264 92 L 266 90 L 266 89 L 271 84 L 272 84 L 273 83 L 274 83 L 275 82 L 276 82 L 277 81 Z M 109 81 L 110 80 L 116 80 L 117 81 L 120 81 L 121 82 L 122 82 L 123 83 L 124 83 L 125 84 L 126 84 L 131 89 L 131 90 L 133 92 L 133 93 L 134 94 L 134 96 L 135 97 L 135 107 L 134 108 L 134 110 L 133 111 L 133 112 L 132 113 L 132 114 L 125 121 L 124 121 L 123 122 L 122 122 L 121 123 L 119 123 L 118 124 L 108 124 L 107 123 L 105 123 L 104 122 L 103 122 L 101 120 L 100 120 L 95 115 L 95 114 L 94 113 L 94 112 L 93 111 L 93 110 L 92 109 L 92 106 L 91 105 L 91 99 L 92 98 L 92 95 L 93 94 L 93 93 L 94 92 L 94 91 L 97 88 L 97 87 L 98 86 L 99 86 L 102 83 L 103 83 L 104 82 L 105 82 L 106 81 Z" fill="currentColor" fill-rule="evenodd"/>
</svg>
