<svg xmlns="http://www.w3.org/2000/svg"
    viewBox="0 0 304 285"
    fill="none"
    aria-labelledby="title"
    role="img">
  <title id="title">Home icon</title>
  <path d="M 143.000 31.000 L 143.000 31.917 L 142.917 32.000 L 139.000 32.000 L 139.000 32.917 L 138.917 33.000 L 136.000 33.000 L 136.000 33.917 L 135.917 34.000 L 133.000 34.000 L 133.000 34.917 L 132.917 35.000 L 131.000 35.000 L 131.000 35.917 L 130.917 36.000 L 129.000 36.000 L 129.000 36.917 L 128.917 37.000 L 127.000 37.000 L 127.000 37.917 L 126.917 38.000 L 126.000 38.000 L 126.000 38.917 L 125.917 39.000 L 124.000 39.000 L 124.000 39.917 L 123.917 40.000 L 123.000 40.000 L 123.000 40.917 L 122.917 41.000 L 121.000 41.000 L 121.000 41.917 L 120.917 42.000 L 120.000 42.000 L 120.000 42.917 L 119.917 43.000 L 119.000 43.000 L 119.000 43.917 L 118.917 44.000 L 118.000 44.000 L 118.000 44.917 L 117.917 45.000 L 116.000 45.000 L 116.000 45.917 L 115.917 46.000 L 115.000 46.000 L 115.000 46.917 L 114.917 47.000 L 114.000 47.000 L 114.000 47.917 L 113.917 48.000 L 113.000 48.000 L 113.000 48.917 L 112.917 49.000 L 112.000 49.000 L 112.000 49.917 L 111.917 50.000 L 110.000 50.000 L 110.000 50.917 L 109.917 51.000 L 109.000 51.000 L 109.000 51.917 L 108.917 52.000 L 108.000 52.000 L 108.000 52.917 L 107.917 53.000 L 107.000 53.000 L 107.000 53.917 L 106.917 54.000 L 106.000 54.000 L 106.000 54.917 L 105.917 55.000 L 104.000 55.000 L 104.000 55.917 L 103.917 56.000 L 103.000 56.000 L 103.000 56.917 L 102.917 57.000 L 102.000 57.000 L 102.000 57.917 L 101.917 58.000 L 101.000 58.000 L 101.000 58.917 L 100.917 59.000 L 99.000 59.000 L 99.000 59.917 L 98.917 60.000 L 98.000 60.000 L 98.000 60.917 L 97.917 61.000 L 97.000 61.000 L 97.000 61.917 L 96.917 62.000 L 96.000 62.000 L 96.000 62.917 L 95.917 63.000 L 95.000 63.000 L 95.000 63.917 L 94.917 64.000 L 93.000 64.000 L 93.000 64.917 L 92.917 65.000 L 92.000 65.000 L 92.000 65.917 L 91.917 66.000 L 91.000 66.000 L 91.000 66.917 L 90.917 67.000 L 90.000 67.000 L 90.000 67.917 L 89.917 68.000 L 89.000 68.000 L 89.000 68.917 L 88.917 69.000 L 87.000 69.000 L 87.000 69.917 L 86.917 70.000 L 86.000 70.000 L 86.000 70.917 L 85.917 71.000 L 85.000 71.000 L 85.000 71.917 L 84.917 72.000 L 84.000 72.000 L 84.000 72.917 L 83.917 73.000 L 83.000 73.000 L 83.000 73.917 L 82.917 74.000 L 81.000 74.000 L 81.000 74.917 L 80.917 75.000 L 80.000 75.000 L 80.000 75.917 L 79.917 76.000 L 79.000 76.000 L 79.000 76.917 L 78.917 77.000 L 78.000 77.000 L 78.000 77.917 L 77.917 78.000 L 76.000 78.000 L 76.000 78.917 L 75.917 79.000 L 75.000 79.000 L 75.000 79.917 L 74.917 80.000 L 74.000 80.000 L 74.000 80.917 L 73.917 81.000 L 73.000 81.000 L 73.000 81.917 L 72.917 82.000 L 72.000 82.000 L 72.000 82.917 L 71.917 83.000 L 70.000 83.000 L 70.000 83.917 L 69.917 84.000 L 69.000 84.000 L 69.000 84.917 L 68.917 85.000 L 68.000 85.000 L 68.000 85.917 L 67.917 86.000 L 67.000 86.000 L 67.000 86.917 L 66.917 87.000 L 66.000 87.000 L 66.000 87.917 L 65.917 88.000 L 64.000 88.000 L 64.000 88.917 L 63.917 89.000 L 63.000 89.000 L 63.000 89.917 L 62.917 90.000 L 62.000 90.000 L 62.000 90.917 L 61.917 91.000 L 61.000 91.000 L 61.000 91.917 L 60.917 92.000 L 60.000 92.000 L 60.000 92.917 L 59.917 93.000 L 59.000 93.000 L 59.000 93.917 L 58.917 94.000 L 58.000 94.000 L 58.000 94.917 L 57.917 95.000 L 57.000 95.000 L 57.000 95.917 L 56.917 96.000 L 56.000 96.000 L 56.000 96.917 L 55.917 97.000 L 55.000 97.000 L 55.000 98.917 L 54.917 99.000 L 54.000 99.000 L 54.000 99.917 L 53.917 100.000 L 53.000 100.000 L 53.000 101.917 L 52.917 102.000 L 52.000 102.000 L 52.000 103.917 L 51.917 104.000 L 51.000 104.000 L 51.000 105.917 L 50.917 106.000 L 50.000 106.000 L 50.000 107.917 L 49.917 108.000 L 49.000 108.000 L 49.000 110.917 L 48.917 111.000 L 48.000 111.000 L 48.000 114.917 L 47.917 115.000 L 47.000 115.000 L 47.000 208.917 L 47.917 208.917 L 48.000 209.000 L 48.000 211.917 L 48.917 211.917 L 49.000 212.000 L 49.000 214.917 L 49.917 214.917 L 50.000 215.000 L 50.000 217.917 L 50.917 217.917 L 51.000 218.000 L 51.000 219.917 L 51.917 219.917 L 52.000 220.000 L 52.000 221.917 L 52.917 221.917 L 53.000 222.000 L 53.000 222.917 L 53.917 222.917 L 54.000 223.000 L 54.000 224.917 L 54.917 224.917 L 55.000 225.000 L 55.000 225.917 L 55.917 225.917 L 56.000 226.000 L 56.000 227.917 L 56.917 227.917 L 57.000 228.000 L 57.000 228.917 L 57.917 228.917 L 58.000 229.000 L 58.000 229.917 L 58.917 229.917 L 59.000 230.000 L 59.000 230.917 L 59.917 230.917 L 60.000 231.000 L 60.000 231.917 L 60.917 231.917 L 61.000 232.000 L 61.000 232.917 L 61.917 232.917 L 62.000 233.000 L 62.000 233.917 L 62.917 233.917 L 63.000 234.000 L 63.000 234.917 L 64.917 234.917 L 65.000 235.000 L 65.000 235.917 L 65.917 235.917 L 66.000 236.000 L 66.000 236.917 L 67.917 236.917 L 68.000 237.000 L 68.000 237.917 L 68.917 237.917 L 69.000 238.000 L 69.000 238.917 L 70.917 238.917 L 71.000 239.000 L 71.000 239.917 L 73.917 239.917 L 74.000 240.000 L 74.000 240.917 L 75.917 240.917 L 76.000 241.000 L 76.000 241.917 L 79.917 241.917 L 80.000 242.000 L 80.000 242.917 L 116.917 242.917 L 116.917 242.000 L 117.000 241.917 L 118.917 241.917 L 118.917 241.000 L 119.000 240.917 L 120.917 240.917 L 120.917 240.000 L 121.000 239.917 L 122.917 239.917 L 122.917 239.000 L 123.000 238.917 L 123.917 238.917 L 123.917 238.000 L 124.000 237.917 L 124.917 237.917 L 124.917 237.000 L 125.000 236.917 L 125.917 236.917 L 125.917 236.000 L 126.000 235.917 L 126.917 235.917 L 126.917 235.000 L 127.000 234.917 L 127.917 234.917 L 127.917 233.000 L 128.000 232.917 L 128.917 232.917 L 128.917 231.000 L 129.000 230.917 L 129.917 230.917 L 129.917 229.000 L 130.000 228.917 L 130.917 228.917 L 130.917 188.000 L 131.000 187.917 L 131.917 187.917 L 131.917 181.000 L 132.000 180.917 L 132.917 180.917 L 132.917 178.000 L 133.000 177.917 L 133.917 177.917 L 133.917 176.000 L 134.000 175.917 L 134.917 175.917 L 134.917 174.000 L 135.000 173.917 L 135.917 173.917 L 135.917 173.000 L 136.000 172.917 L 136.917 172.917 L 136.917 171.000 L 137.000 170.917 L 137.917 170.917 L 137.917 170.000 L 138.000 169.917 L 138.917 169.917 L 138.917 169.000 L 139.000 168.917 L 140.917 168.917 L 140.917 168.000 L 141.000 167.917 L 141.917 167.917 L 141.917 167.000 L 142.000 166.917 L 143.917 166.917 L 143.917 166.000 L 144.000 165.917 L 145.917 165.917 L 145.917 165.000 L 146.000 164.917 L 148.917 164.917 L 148.917 164.000 L 149.000 163.917 L 156.917 163.917 L 157.000 164.000 L 157.000 164.917 L 159.917 164.917 L 160.000 165.000 L 160.000 165.917 L 161.917 165.917 L 162.000 166.000 L 162.000 166.917 L 163.917 166.917 L 164.000 167.000 L 164.000 167.917 L 164.917 167.917 L 165.000 168.000 L 165.000 168.917 L 166.917 168.917 L 167.000 169.000 L 167.000 169.917 L 167.917 169.917 L 168.000 170.000 L 168.000 170.917 L 168.917 170.917 L 169.000 171.000 L 169.000 172.917 L 169.917 172.917 L 170.000 173.000 L 170.000 173.917 L 170.917 173.917 L 171.000 174.000 L 171.000 175.917 L 171.917 175.917 L 172.000 176.000 L 172.000 177.917 L 172.917 177.917 L 173.000 178.000 L 173.000 180.917 L 173.917 180.917 L 174.000 181.000 L 174.000 187.917 L 174.917 187.917 L 175.000 188.000 L 175.000 228.917 L 175.917 228.917 L 176.000 229.000 L 176.000 230.917 L 176.917 230.917 L 177.000 231.000 L 177.000 232.917 L 177.917 232.917 L 178.000 233.000 L 178.000 234.917 L 178.917 234.917 L 179.000 235.000 L 179.000 235.917 L 179.917 235.917 L 180.000 236.000 L 180.000 236.917 L 180.917 236.917 L 181.000 237.000 L 181.000 237.917 L 181.917 237.917 L 182.000 238.000 L 182.000 238.917 L 182.917 238.917 L 183.000 239.000 L 183.000 239.917 L 184.917 239.917 L 185.000 240.000 L 185.000 240.917 L 186.917 240.917 L 187.000 241.000 L 187.000 241.917 L 188.917 241.917 L 189.000 242.000 L 189.000 242.917 L 225.917 242.917 L 225.917 242.000 L 226.000 241.917 L 229.917 241.917 L 229.917 241.000 L 230.000 240.917 L 231.917 240.917 L 231.917 240.000 L 232.000 239.917 L 234.917 239.917 L 234.917 239.000 L 235.000 238.917 L 236.917 238.917 L 236.917 238.000 L 237.000 237.917 L 237.917 237.917 L 237.917 237.000 L 238.000 236.917 L 239.917 236.917 L 239.917 236.000 L 240.000 235.917 L 240.917 235.917 L 240.917 235.000 L 241.000 234.917 L 242.917 234.917 L 242.917 234.000 L 243.000 233.917 L 243.917 233.917 L 243.917 233.000 L 244.000 232.917 L 244.917 232.917 L 244.917 232.000 L 245.000 231.917 L 245.917 231.917 L 245.917 231.000 L 246.000 230.917 L 246.917 230.917 L 246.917 230.000 L 247.000 229.917 L 247.917 229.917 L 247.917 229.000 L 248.000 228.917 L 248.917 228.917 L 248.917 228.000 L 249.000 227.917 L 249.917 227.917 L 249.917 226.000 L 250.000 225.917 L 250.917 225.917 L 250.917 225.000 L 251.000 224.917 L 251.917 224.917 L 251.917 223.000 L 252.000 222.917 L 252.917 222.917 L 252.917 222.000 L 253.000 221.917 L 253.917 221.917 L 253.917 220.000 L 254.000 219.917 L 254.917 219.917 L 254.917 218.000 L 255.000 217.917 L 255.917 217.917 L 255.917 215.000 L 256.000 214.917 L 256.917 214.917 L 256.917 212.000 L 257.000 211.917 L 257.917 211.917 L 257.917 208.000 L 258.000 207.917 L 258.917 207.917 L 258.917 115.000 L 258.000 115.000 L 257.917 114.917 L 257.917 111.000 L 257.000 111.000 L 256.917 110.917 L 256.917 109.000 L 256.000 109.000 L 255.917 108.917 L 255.917 106.000 L 255.000 106.000 L 254.917 105.917 L 254.917 104.000 L 254.000 104.000 L 253.917 103.917 L 253.917 102.000 L 253.000 102.000 L 252.917 101.917 L 252.917 100.000 L 252.000 100.000 L 251.917 99.917 L 251.917 99.000 L 251.000 99.000 L 250.917 98.917 L 250.917 97.000 L 250.000 97.000 L 249.917 96.917 L 249.917 96.000 L 249.000 96.000 L 248.917 95.917 L 248.917 95.000 L 248.000 95.000 L 247.917 94.917 L 247.917 94.000 L 247.000 94.000 L 246.917 93.917 L 246.917 93.000 L 246.000 93.000 L 245.917 92.917 L 245.917 92.000 L 245.000 92.000 L 244.917 91.917 L 244.917 91.000 L 244.000 91.000 L 243.917 90.917 L 243.917 90.000 L 243.000 90.000 L 242.917 89.917 L 242.917 89.000 L 242.000 89.000 L 241.917 88.917 L 241.917 88.000 L 240.000 88.000 L 239.917 87.917 L 239.917 87.000 L 239.000 87.000 L 238.917 86.917 L 238.917 86.000 L 238.000 86.000 L 237.917 85.917 L 237.917 85.000 L 237.000 85.000 L 236.917 84.917 L 236.917 84.000 L 236.000 84.000 L 235.917 83.917 L 235.917 83.000 L 234.000 83.000 L 233.917 82.917 L 233.917 82.000 L 233.000 82.000 L 232.917 81.917 L 232.917 81.000 L 232.000 81.000 L 231.917 80.917 L 231.917 80.000 L 231.000 80.000 L 230.917 79.917 L 230.917 79.000 L 230.000 79.000 L 229.917 78.917 L 229.917 78.000 L 228.000 78.000 L 227.917 77.917 L 227.917 77.000 L 227.000 77.000 L 226.917 76.917 L 226.917 76.000 L 226.000 76.000 L 225.917 75.917 L 225.917 75.000 L 225.000 75.000 L 224.917 74.917 L 224.917 74.000 L 223.000 74.000 L 222.917 73.917 L 222.917 73.000 L 222.000 73.000 L 221.917 72.917 L 221.917 72.000 L 221.000 72.000 L 220.917 71.917 L 220.917 71.000 L 220.000 71.000 L 219.917 70.917 L 219.917 70.000 L 219.000 70.000 L 218.917 69.917 L 218.917 69.000 L 217.000 69.000 L 216.917 68.917 L 216.917 68.000 L 216.000 68.000 L 215.917 67.917 L 215.917 67.000 L 215.000 67.000 L 214.917 66.917 L 214.917 66.000 L 214.000 66.000 L 213.917 65.917 L 213.917 65.000 L 213.000 65.000 L 212.917 64.917 L 212.917 64.000 L 211.000 64.000 L 210.917 63.917 L 210.917 63.000 L 210.000 63.000 L 209.917 62.917 L 209.917 62.000 L 209.000 62.000 L 208.917 61.917 L 208.917 61.000 L 208.000 61.000 L 207.917 60.917 L 207.917 60.000 L 207.000 60.000 L 206.917 59.917 L 206.917 59.000 L 205.000 59.000 L 204.917 58.917 L 204.917 58.000 L 204.000 58.000 L 203.917 57.917 L 203.917 57.000 L 203.000 57.000 L 202.917 56.917 L 202.917 56.000 L 202.000 56.000 L 201.917 55.917 L 201.917 55.000 L 200.000 55.000 L 199.917 54.917 L 199.917 54.000 L 199.000 54.000 L 198.917 53.917 L 198.917 53.000 L 198.000 53.000 L 197.917 52.917 L 197.917 52.000 L 197.000 52.000 L 196.917 51.917 L 196.917 51.000 L 196.000 51.000 L 195.917 50.917 L 195.917 50.000 L 194.000 50.000 L 193.917 49.917 L 193.917 49.000 L 193.000 49.000 L 192.917 48.917 L 192.917 48.000 L 192.000 48.000 L 191.917 47.917 L 191.917 47.000 L 191.000 47.000 L 190.917 46.917 L 190.917 46.000 L 190.000 46.000 L 189.917 45.917 L 189.917 45.000 L 188.000 45.000 L 187.917 44.917 L 187.917 44.000 L 187.000 44.000 L 186.917 43.917 L 186.917 43.000 L 186.000 43.000 L 185.917 42.917 L 185.917 42.000 L 185.000 42.000 L 184.917 41.917 L 184.917 41.000 L 183.000 41.000 L 182.917 40.917 L 182.917 40.000 L 182.000 40.000 L 181.917 39.917 L 181.917 39.000 L 180.000 39.000 L 179.917 38.917 L 179.917 38.000 L 179.000 38.000 L 178.917 37.917 L 178.917 37.000 L 177.000 37.000 L 176.917 36.917 L 176.917 36.000 L 175.000 36.000 L 174.917 35.917 L 174.917 35.000 L 173.000 35.000 L 172.917 34.917 L 172.917 34.000 L 170.000 34.000 L 169.917 33.917 L 169.917 33.000 L 167.000 33.000 L 166.917 32.917 L 166.917 32.000 L 163.000 32.000 L 162.917 31.917 L 162.917 31.000 Z M 144.917 52.000 L 145.000 51.917 L 160.917 51.917 L 161.000 52.000 L 161.000 52.917 L 163.917 52.917 L 164.000 53.000 L 164.000 53.917 L 165.917 53.917 L 166.000 54.000 L 166.000 54.917 L 167.917 54.917 L 168.000 55.000 L 168.000 55.917 L 169.917 55.917 L 170.000 56.000 L 170.000 56.917 L 170.917 56.917 L 171.000 57.000 L 171.000 57.917 L 171.917 57.917 L 172.000 58.000 L 172.000 58.917 L 173.917 58.917 L 174.000 59.000 L 174.000 59.917 L 174.917 59.917 L 175.000 60.000 L 175.000 60.917 L 175.917 60.917 L 176.000 61.000 L 176.000 61.917 L 176.917 61.917 L 177.000 62.000 L 177.000 62.917 L 177.917 62.917 L 178.000 63.000 L 178.000 63.917 L 179.917 63.917 L 180.000 64.000 L 180.000 64.917 L 180.917 64.917 L 181.000 65.000 L 181.000 65.917 L 181.917 65.917 L 182.000 66.000 L 182.000 66.917 L 182.917 66.917 L 183.000 67.000 L 183.000 67.917 L 183.917 67.917 L 184.000 68.000 L 184.000 68.917 L 185.917 68.917 L 186.000 69.000 L 186.000 69.917 L 186.917 69.917 L 187.000 70.000 L 187.000 70.917 L 187.917 70.917 L 188.000 71.000 L 188.000 71.917 L 188.917 71.917 L 189.000 72.000 L 189.000 72.917 L 189.917 72.917 L 190.000 73.000 L 190.000 73.917 L 191.917 73.917 L 192.000 74.000 L 192.000 74.917 L 192.917 74.917 L 193.000 75.000 L 193.000 75.917 L 193.917 75.917 L 194.000 76.000 L 194.000 76.917 L 194.917 76.917 L 195.000 77.000 L 195.000 77.917 L 195.917 77.917 L 196.000 78.000 L 196.000 78.917 L 197.917 78.917 L 198.000 79.000 L 198.000 79.917 L 198.917 79.917 L 199.000 80.000 L 199.000 80.917 L 199.917 80.917 L 200.000 81.000 L 200.000 81.917 L 200.917 81.917 L 201.000 82.000 L 201.000 82.917 L 202.917 82.917 L 203.000 83.000 L 203.000 83.917 L 203.917 83.917 L 204.000 84.000 L 204.000 84.917 L 204.917 84.917 L 205.000 85.000 L 205.000 85.917 L 205.917 85.917 L 206.000 86.000 L 206.000 86.917 L 206.917 86.917 L 207.000 87.000 L 207.000 87.917 L 208.917 87.917 L 209.000 88.000 L 209.000 88.917 L 209.917 88.917 L 210.000 89.000 L 210.000 89.917 L 210.917 89.917 L 211.000 90.000 L 211.000 90.917 L 211.917 90.917 L 212.000 91.000 L 212.000 91.917 L 212.917 91.917 L 213.000 92.000 L 213.000 92.917 L 214.917 92.917 L 215.000 93.000 L 215.000 93.917 L 215.917 93.917 L 216.000 94.000 L 216.000 94.917 L 216.917 94.917 L 217.000 95.000 L 217.000 95.917 L 217.917 95.917 L 218.000 96.000 L 218.000 96.917 L 218.917 96.917 L 219.000 97.000 L 219.000 97.917 L 220.917 97.917 L 221.000 98.000 L 221.000 98.917 L 221.917 98.917 L 222.000 99.000 L 222.000 99.917 L 222.917 99.917 L 223.000 100.000 L 223.000 100.917 L 223.917 100.917 L 224.000 101.000 L 224.000 101.917 L 225.917 101.917 L 226.000 102.000 L 226.000 102.917 L 226.917 102.917 L 227.000 103.000 L 227.000 103.917 L 227.917 103.917 L 228.000 104.000 L 228.000 104.917 L 228.917 104.917 L 229.000 105.000 L 229.000 105.917 L 229.917 105.917 L 230.000 106.000 L 230.000 106.917 L 230.917 106.917 L 231.000 107.000 L 231.000 107.917 L 231.917 107.917 L 232.000 108.000 L 232.000 108.917 L 232.917 108.917 L 233.000 109.000 L 233.000 109.917 L 233.917 109.917 L 234.000 110.000 L 234.000 110.917 L 234.917 110.917 L 235.000 111.000 L 235.000 112.917 L 235.917 112.917 L 236.000 113.000 L 236.000 114.917 L 236.917 114.917 L 237.000 115.000 L 237.000 117.917 L 237.917 117.917 L 238.000 118.000 L 238.000 124.917 L 238.917 124.917 L 239.000 125.000 L 239.000 198.917 L 238.917 199.000 L 238.000 199.000 L 238.000 205.917 L 237.917 206.000 L 237.000 206.000 L 237.000 208.917 L 236.917 209.000 L 236.000 209.000 L 236.000 210.917 L 235.917 211.000 L 235.000 211.000 L 235.000 212.917 L 234.917 213.000 L 234.000 213.000 L 234.000 213.917 L 233.917 214.000 L 233.000 214.000 L 233.000 214.917 L 232.917 215.000 L 232.000 215.000 L 232.000 215.917 L 231.917 216.000 L 231.000 216.000 L 231.000 216.917 L 230.917 217.000 L 230.000 217.000 L 230.000 217.917 L 229.917 218.000 L 229.000 218.000 L 229.000 218.917 L 228.917 219.000 L 227.000 219.000 L 227.000 219.917 L 226.917 220.000 L 226.000 220.000 L 226.000 220.917 L 225.917 221.000 L 223.000 221.000 L 223.000 221.917 L 222.917 222.000 L 217.000 222.000 L 217.000 222.917 L 216.917 223.000 L 196.000 223.000 L 195.917 222.917 L 195.917 222.000 L 195.000 222.000 L 194.917 221.917 L 194.917 178.000 L 194.000 178.000 L 193.917 177.917 L 193.917 174.000 L 193.000 174.000 L 192.917 173.917 L 192.917 171.000 L 192.000 171.000 L 191.917 170.917 L 191.917 169.000 L 191.000 169.000 L 190.917 168.917 L 190.917 167.000 L 190.000 167.000 L 189.917 166.917 L 189.917 165.000 L 189.000 165.000 L 188.917 164.917 L 188.917 163.000 L 188.000 163.000 L 187.917 162.917 L 187.917 162.000 L 187.000 162.000 L 186.917 161.917 L 186.917 160.000 L 186.000 160.000 L 185.917 159.917 L 185.917 159.000 L 185.000 159.000 L 184.917 158.917 L 184.917 158.000 L 184.000 158.000 L 183.917 157.917 L 183.917 157.000 L 183.000 157.000 L 182.917 156.917 L 182.917 156.000 L 182.000 156.000 L 181.917 155.917 L 181.917 155.000 L 181.000 155.000 L 180.917 154.917 L 180.917 154.000 L 180.000 154.000 L 179.917 153.917 L 179.917 153.000 L 179.000 153.000 L 178.917 152.917 L 178.917 152.000 L 178.000 152.000 L 177.917 151.917 L 177.917 151.000 L 177.000 151.000 L 176.917 150.917 L 176.917 150.000 L 175.000 150.000 L 174.917 149.917 L 174.917 149.000 L 173.000 149.000 L 172.917 148.917 L 172.917 148.000 L 171.000 148.000 L 170.917 147.917 L 170.917 147.000 L 169.000 147.000 L 168.917 146.917 L 168.917 146.000 L 167.000 146.000 L 166.917 145.917 L 166.917 145.000 L 164.000 145.000 L 163.917 144.917 L 163.917 144.000 L 158.000 144.000 L 157.917 143.917 L 157.917 143.000 L 148.000 143.000 L 148.000 143.917 L 147.917 144.000 L 142.000 144.000 L 142.000 144.917 L 141.917 145.000 L 139.000 145.000 L 139.000 145.917 L 138.917 146.000 L 137.000 146.000 L 137.000 146.917 L 136.917 147.000 L 135.000 147.000 L 135.000 147.917 L 134.917 148.000 L 133.000 148.000 L 133.000 148.917 L 132.917 149.000 L 131.000 149.000 L 131.000 149.917 L 130.917 150.000 L 130.000 150.000 L 130.000 150.917 L 129.917 151.000 L 128.000 151.000 L 128.000 151.917 L 127.917 152.000 L 127.000 152.000 L 127.000 152.917 L 126.917 153.000 L 126.000 153.000 L 126.000 153.917 L 125.917 154.000 L 125.000 154.000 L 125.000 154.917 L 124.917 155.000 L 124.000 155.000 L 124.000 155.917 L 123.917 156.000 L 123.000 156.000 L 123.000 156.917 L 122.917 157.000 L 122.000 157.000 L 122.000 157.917 L 121.917 158.000 L 121.000 158.000 L 121.000 158.917 L 120.917 159.000 L 120.000 159.000 L 120.000 159.917 L 119.917 160.000 L 119.000 160.000 L 119.000 161.917 L 118.917 162.000 L 118.000 162.000 L 118.000 162.917 L 117.917 163.000 L 117.000 163.000 L 117.000 164.917 L 116.917 165.000 L 116.000 165.000 L 116.000 166.917 L 115.917 167.000 L 115.000 167.000 L 115.000 168.917 L 114.917 169.000 L 114.000 169.000 L 114.000 170.917 L 113.917 171.000 L 113.000 171.000 L 113.000 173.917 L 112.917 174.000 L 112.000 174.000 L 112.000 177.917 L 111.917 178.000 L 111.000 178.000 L 111.000 221.917 L 110.917 222.000 L 110.000 222.000 L 110.000 222.917 L 109.917 223.000 L 89.000 223.000 L 88.917 222.917 L 88.917 222.000 L 83.000 222.000 L 82.917 221.917 L 82.917 221.000 L 80.000 221.000 L 79.917 220.917 L 79.917 220.000 L 79.000 220.000 L 78.917 219.917 L 78.917 219.000 L 77.000 219.000 L 76.917 218.917 L 76.917 218.000 L 76.000 218.000 L 75.917 217.917 L 75.917 217.000 L 75.000 217.000 L 74.917 216.917 L 74.917 216.000 L 74.000 216.000 L 73.917 215.917 L 73.917 215.000 L 73.000 215.000 L 72.917 214.917 L 72.917 214.000 L 72.000 214.000 L 71.917 213.917 L 71.917 213.000 L 71.000 213.000 L 70.917 212.917 L 70.917 211.000 L 70.000 211.000 L 69.917 210.917 L 69.917 209.000 L 69.000 209.000 L 68.917 208.917 L 68.917 206.000 L 68.000 206.000 L 67.917 205.917 L 67.917 199.000 L 67.000 199.000 L 66.917 198.917 L 66.917 125.000 L 67.000 124.917 L 67.917 124.917 L 67.917 118.000 L 68.000 117.917 L 68.917 117.917 L 68.917 115.000 L 69.000 114.917 L 69.917 114.917 L 69.917 113.000 L 70.000 112.917 L 70.917 112.917 L 70.917 111.000 L 71.000 110.917 L 71.917 110.917 L 71.917 110.000 L 72.000 109.917 L 72.917 109.917 L 72.917 109.000 L 73.000 108.917 L 73.917 108.917 L 73.917 108.000 L 74.000 107.917 L 74.917 107.917 L 74.917 107.000 L 75.000 106.917 L 75.917 106.917 L 75.917 106.000 L 76.000 105.917 L 76.917 105.917 L 76.917 105.000 L 77.000 104.917 L 77.917 104.917 L 77.917 104.000 L 78.000 103.917 L 78.917 103.917 L 78.917 103.000 L 79.000 102.917 L 80.917 102.917 L 80.917 102.000 L 81.000 101.917 L 81.917 101.917 L 81.917 101.000 L 82.000 100.917 L 82.917 100.917 L 82.917 100.000 L 83.000 99.917 L 83.917 99.917 L 83.917 99.000 L 84.000 98.917 L 84.917 98.917 L 84.917 98.000 L 85.000 97.917 L 86.917 97.917 L 86.917 97.000 L 87.000 96.917 L 87.917 96.917 L 87.917 96.000 L 88.000 95.917 L 88.917 95.917 L 88.917 95.000 L 89.000 94.917 L 89.917 94.917 L 89.917 94.000 L 90.000 93.917 L 90.917 93.917 L 90.917 93.000 L 91.000 92.917 L 92.917 92.917 L 92.917 92.000 L 93.000 91.917 L 93.917 91.917 L 93.917 91.000 L 94.000 90.917 L 94.917 90.917 L 94.917 90.000 L 95.000 89.917 L 95.917 89.917 L 95.917 89.000 L 96.000 88.917 L 96.917 88.917 L 96.917 88.000 L 97.000 87.917 L 98.917 87.917 L 98.917 87.000 L 99.000 86.917 L 99.917 86.917 L 99.917 86.000 L 100.000 85.917 L 100.917 85.917 L 100.917 85.000 L 101.000 84.917 L 101.917 84.917 L 101.917 84.000 L 102.000 83.917 L 102.917 83.917 L 102.917 83.000 L 103.000 82.917 L 104.917 82.917 L 104.917 82.000 L 105.000 81.917 L 105.917 81.917 L 105.917 81.000 L 106.000 80.917 L 106.917 80.917 L 106.917 80.000 L 107.000 79.917 L 107.917 79.917 L 107.917 79.000 L 108.000 78.917 L 109.917 78.917 L 109.917 78.000 L 110.000 77.917 L 110.917 77.917 L 110.917 77.000 L 111.000 76.917 L 111.917 76.917 L 111.917 76.000 L 112.000 75.917 L 112.917 75.917 L 112.917 75.000 L 113.000 74.917 L 113.917 74.917 L 113.917 74.000 L 114.000 73.917 L 115.917 73.917 L 115.917 73.000 L 116.000 72.917 L 116.917 72.917 L 116.917 72.000 L 117.000 71.917 L 117.917 71.917 L 117.917 71.000 L 118.000 70.917 L 118.917 70.917 L 118.917 70.000 L 119.000 69.917 L 119.917 69.917 L 119.917 69.000 L 120.000 68.917 L 121.917 68.917 L 121.917 68.000 L 122.000 67.917 L 122.917 67.917 L 122.917 67.000 L 123.000 66.917 L 123.917 66.917 L 123.917 66.000 L 124.000 65.917 L 124.917 65.917 L 124.917 65.000 L 125.000 64.917 L 125.917 64.917 L 125.917 64.000 L 126.000 63.917 L 127.917 63.917 L 127.917 63.000 L 128.000 62.917 L 128.917 62.917 L 128.917 62.000 L 129.000 61.917 L 129.917 61.917 L 129.917 61.000 L 130.000 60.917 L 130.917 60.917 L 130.917 60.000 L 131.000 59.917 L 132.917 59.917 L 132.917 59.000 L 133.000 58.917 L 133.917 58.917 L 133.917 58.000 L 134.000 57.917 L 134.917 57.917 L 134.917 57.000 L 135.000 56.917 L 135.917 56.917 L 135.917 56.000 L 136.000 55.917 L 137.917 55.917 L 137.917 55.000 L 138.000 54.917 L 139.917 54.917 L 139.917 54.000 L 140.000 53.917 L 141.917 53.917 L 141.917 53.000 L 142.000 52.917 L 144.917 52.917 Z"
        fill="currentColor"
        fill-rule="evenodd"
        clip-rule="evenodd"/>
</svg>
